# xmcd
#
# Track frame offsets: 
#        150
#        22057
#        40245
#        66252
#        88230
#        110540
#        127705
#        153357
#        171357
#        194805
#        228772
#        247485
#        270630
#        293770
#
# Disc length: 4250 seconds
#
# Revision: 0
# Processed by: cddbd v1.5.2PL0 Copyright (c) Steve Scherf et al.
# Submitted via: ExactAudioCopy v0.99pb5
#
DISCID=ce10980e
DTITLE=baby face - A collection of his greatest hits
DYEAR=1900
DGENRE=Blues
TTITLE0=for the cool in you
TTITLE1=it's no crime
TTITLE2=whip appeal
TTITLE3=never keeping secrets
TTITLE4=every time i close my eyes
TTITLE5=when can i see you
TTITLE6=reason for breathing
TTITLE7=this is for the lover in you
TTITLE8=how come, how long
TTITLE9=change the world
TTITLE10=i love you babe
TTITLE11=soon as i get home
TTITLE12=where will you go
TTITLE13=when men grow old
EXTD=
EXTT0=
EXTT1=
EXTT2=
EXTT3=
EXTT4=
EXTT5=
EXTT6=
EXTT7=
EXTT8=
EXTT9=
EXTT10=
EXTT11=
EXTT12=
EXTT13=
PLAYORDER=
